<?xml version="1.0" encoding="utf-8"?>
<!-- Generator: Adobe Illustrator 16.0.3, SVG Export Plug-In . SVG Version: 6.00 Build 0)  -->
<!DOCTYPE svg PUBLIC "-//W3C//DTD SVG 1.1//EN" "http://www.w3.org/Graphics/SVG/1.1/DTD/svg11.dtd">
<svg version="1.1" xmlns="http://www.w3.org/2000/svg" xmlns:xlink="http://www.w3.org/1999/xlink" x="0px" y="0px"
	 width="462.537px" height="462.536px" viewBox="0 0 462.537 462.536" enable-background="new 0 0 462.537 462.536"
	 xml:space="preserve">
<g id="Ebene_2" display="none">
	<g display="inline">
		<rect x="-0.408" y="-0.154" width="463" height="463"/>
	</g>
	<g display="inline">
		<rect x="-0.408" y="-0.154" width="463" height="463"/>
	</g>
</g>
<g id="Ebene_1">
	
		<g id="g6495-5-2-6-7-0-8-7-2" transform="matrix(0.22881594,0,0,0.22881594,710.16923,162.09957)" inkscape:export-ydpi="149.79024" inkscape:export-xdpi="149.79024" inkscape:export-filename="D:\Users\Thierry\Documents\Private\Sandra\Praxis\export.png">
		<g id="path2985-1-2-6-4-0-4-2-57-6-7" inkscape:connector-curvature="0" opacity="0.58" enable-background="new    ">
			
				<radialGradient id="SVGID_1_" cx="-9248.3867" cy="2385.7551" r="626.7717" gradientTransform="matrix(0.3807 0 0 -0.3807 1427.481 1210.4346)" gradientUnits="userSpaceOnUse">
				<stop  offset="0" style="stop-color:#FFFFFF"/>
				<stop  offset="0.0987" style="stop-color:#FFEEB8"/>
				<stop  offset="0.1973" style="stop-color:#FFDE72"/>
				<stop  offset="0.4101" style="stop-color:#FFFFF0"/>
				<stop  offset="0.5583" style="stop-color:#FFD051"/>
				<stop  offset="0.7613" style="stop-color:#FFE7B2;stop-opacity:0.3584"/>
				<stop  offset="0.9132" style="stop-color:#FFF3D8;stop-opacity:0"/>
				<stop  offset="1" style="stop-color:#FFFFFF;stop-opacity:0"/>
			</radialGradient>
			<circle fill="url(#SVGID_1_)" cx="-2092.951" cy="302.293" r="231.269"/>
		</g>
		<g id="group28-51-5-0-8-4-0-07-3-61-1-9" transform="matrix(0,-1,1,0,-422.08371,460.10187)">
			<title  id="title7040-2-4-2-5-6-6-5-8-8-54">g8</title>
			<g id="shape29-52-7-8-6-0-9-01-4-9-9-3" transform="matrix(1,0,0,-1,104.01,1579.07)">
				<title  id="title7043-6-5-8-5-8-2-1-2-2-1">path10</title>
				<path id="path7045-1-9-1-5-7-9-6-7-7-2" inkscape:connector-curvature="0" fill="#7BB800" fill-opacity="0.7811" d="
					M67.554,3204.19c-14.453-0.243,2.757-7.448,21.66-10.354c5.198,4.089,9.923,8.147,14.178,12.168
					C91.615,3203.127,79.647,3203.089,67.554,3204.19z"/>
			</g>
			<g id="shape30-58-4-4-2-3-8-3-6-9-9-33" transform="matrix(1,0,0,-1,121.305,1564.92)">
				<title  id="title7048-2-4-6-0-4-8-4-5-5-4">path12</title>
				<path id="path7050-3-4-6-8-9-5-5-4-4-1" inkscape:connector-curvature="0" fill="#7BB800" fill-opacity="0.7811" d="
					M127.933,3209.331c8.623,11.861,14.891,24.809,17.095,38.24c-1.929-9.573-7.093-17.84-12.014-26.542
					c-27.052-16.965-2.554,10.085-0.041,20.358C103.913,3204.884,129,3219.497,127.933,3209.331z"/>
			</g>
			<g id="shape31-61-2-9-2-9-7-1-29-31-31-1" transform="matrix(1,0,0,-1,132.797,1549.16)">
				<title  id="title7053-2-9-4-0-8-5-1-2-2-3">path14</title>
			</g>
			<g id="shape32-64-6-5-3-7-0-6-2-3-3-8" transform="matrix(1,0,0,-1,93.7489,1465.61)">
				<title  id="title7058-8-3-0-2-1-6-4-34-3-7">path16</title>
				<path id="path7060-5-2-2-8-1-8-9-1-4-4" inkscape:connector-curvature="0" fill="#7BB800" fill-opacity="0.7811" d="
					M22.96,3539.326c7.716-1.37,16.698-2.433,15.435-4.287C46.824,3536.893,48.747,3538.588,22.96,3539.326z"/>
			</g>
			<g id="shape33-67-7-1-0-0-0-8-9-13-1-2" transform="matrix(1,0,0,-1,96.2825,1466.7)">
				<title  id="title7063-6-7-5-5-3-9-3-8-1-7">path18</title>
				<path id="path7065-1-4-1-9-4-8-7-7-3-7" inkscape:connector-curvature="0" fill="#7BB800" fill-opacity="0.7811" d="
					M35.834,3536.129l-5.431-1.144l5.081,0.47L35.834,3536.129L35.834,3536.129z"/>
			</g>
			<g id="shape34-70-8-3-0-8-9-7-6-4-8-9" transform="matrix(1,0,0,-1,0.361933,1464.33)">
				<title  id="title7068-9-1-5-9-7-0-5-2-7-3">path20</title>
				<path id="path7070-2-9-8-1-0-7-8-7-42-19" inkscape:connector-curvature="0" fill="#7BB800" fill-opacity="0.7811" d="
					M372.598,3173.198c0.826-23.299-6.858-34.608-13.822-54.655l-12.484-6.227c-10.239-19.803,0.982-12.594-6.34-28.339
					c-15.994-14.144-48.477-44.305-58.876-47.058c-7.597,0.188,5.122,8.941,6.816,12.355c-21.425-14.601-17.17-21.971-49.896-30.831
					l-0.941,2.083c-80.691-37.792-192.721,37.135-191.27,139.441c-0.86-6.491-2.433-4.878-4.249-7.516
					c-4.142,52.653,24.417,105.492,72.537,127.07c47.098,23.234,102.304,13.715,136.052-17.639
					c-18.548,24.188-55.408,49.855-99.12,47.461c-42.809-0.672-82.889-27.805-96.239-57.262
					c-21.931-13.743-24.498-53.042-34.017-60.248c-12.88-94.199,24.175-134.867,86.83-182.762c9.88-6.615,2.795-7.597,4.127-12.676
					c-20.827,9.718-39.892,24.417-55.57,42.376c8.31-12.138,17.291-23.943,28.881-33.208c-19.617,6.615-45.848,47.421-53.526,49.077
					c33.87-60.412,137.315-105.938,191.5-83.335c-25.042-0.9-56.9-0.512-85.055,9.854c-11.858,6.065-27.965,18.664-25.048,20.99
					c73.916-27.537,150.311-20.84,214.263,30.276c16.301,12.642,34.062,34.139,39.179,34.42c-7.719-11.574,1.338-5.591-4.605-15.795
					c16.22,26.068-7.053,10.593,16.773,45.014l8.779-12.087c-3.267,21.66,26.977,47.916,23.907,82.136
					c6.929,10.473,7.716-11.254,0.354-35.321c10.239,26.704,2.716,30.989,5.318,53.042c2.832-7.396,6.575-15.275,8.465-23.111
					c-6.656,25.827,6.809,43.479,10.158,58.47c-3.267,1.466-10.273-11.415-11.852,19.067c0.235,13.271,3.705,6.963,5.04,10.205
					c-2.642,1.492-9.451,11.643-13.625,31.139c2.992,4.571,8.073-11.886,12.168-12.558c-2.635,15.475-7.166,27.295-7.362,39.179
					c-12.012,24.967-4.255-3.346-13.982,10.717c-12.755,39.73,10.593,9.21,12.168,27.253c19.374-27.925,30.404-71.287,35.481-89.195
					c-3.899,21.85-10.117,43.078-17.761,63.555c5.868-2.448-9.485,45.013,7.644,13.58
					c-18.273,67.023-78.211,129.678-133.376,159.056c6.728-6.146,15.273-13.903,12.208-15.087
					c-27.449,16.269-22.609,17.52-26.542,24.417c-22.332,9.063-23.823-0.751-38.594-0.039
					c-42.137,22.291-50.244,19.925-88.992,33.868l1.767-8.228c-27.925,9.289-32.524-3.51-62.695,0
					c-1.801,1.41,9.695,5.149,19.148,6.534c-26.971-3.551-25.708,5.271-52.1-0.981c6.494,4.53,13.391,7.556,20.315,11.415
					c-22.01-1.332-52.529-12.759-43.078-2.367c-35.912-15.945-99.63-38.345-135.38-71.784l-1.144,7.49
					c-16.376-19.618-71.434-58.568-75.843-83.926l-4.37-1.022c-8.51-14.413-14.022-30.708-20.787-45.523
					c-11.158-18.933-16.348-7.275-14.776-10.232c-21.928-44.343-32.846-81.598-42.259-112.16
					c6.737-9.949,0.162-60.126,2.717-100.287c-11.026-198.278,139.601-390.756,304.237-435.219
					c24.148-8.578,60.019-8.271,90.539-9.129c-35.991,10.269-40.684,5.429-75.723,17.639c-25.33,11.886-30.87,25.437-48.793,40.955
					l7.087-12.531c-35.159,12.407-20.437,15.365-49.021,24.374l7.556,9.897c-11.376,0.858-30.157,19.133-35.321,29.256
					l-12.437-0.512c-15.006,18.42-22.966,31.689-22.413,42.017l-4.02-7.166c-4.571,7.785-55.086,69.067-28.853,54.813
					c-4.895,4.438-11.348,7.208-18.392,19.927l5.35,6.103c-12.637,16.175-23.232,36.896-22.398,43.819
					c6.694-9.048,11.374-10.742,15.973-12.313c-31.854,78.785-33.614,4.366-57.762,80.211l5.124,0.431
					c-3.939,5.864-6.306,12.249-9.453,18.501l2.247,22.065c-22.966,26.375-6.415,112.374-3.107,159.513
					c2.273,19.184,19.133,39.58,31.973,71.594l-7.838,1.332c14.963,25.962,85.255,104.239,117.819,100.221
					c15.785,19.737-3.145,0.079-6.225,5.04c34.647,35.725,45.564,25.251,68.961,31.664c25.195,14.925-21.675-5.781-9.695,5.715
					c43.588,11.105,30.87,25.236,87.729,30.87c6.024-3.427-13.901-5.284-18.903-9.695c36.316,17.722,114.956,13.715,165.987-9.842
					c59.266-27.562,125.854-109.147,128.496-185.946l2.992-0.779c-1.534-30.522,4.684-65.802-6.065-98.217L372.598,3173.198z"/>
			</g>
			<g id="shape35-73-7-0-0-1-3-9-7-7-7-8" transform="matrix(1,0,0,-1,67.062,1584.56)">
				<title  id="title7073-9-7-1-5-2-1-8-93-7-6">path22</title>
				<path id="path7075-5-3-3-3-7-5-97-1-9-5" inkscape:connector-curvature="0" fill="#7BB800" fill-opacity="0.7811" d="
					M-53.397,3189.872l-2.044-10.123c9.492-12.881,17.048-26.824,29.175-36.853C-34.964,3159.865-41.458,3166.868-53.397,3189.872z"
					/>
			</g>
			<g id="shape36-76-4-8-8-7-0-8-7-98-3-0" transform="matrix(1,0,0,-1,70.4052,1579.55)">
				<title  id="title7078-3-4-2-9-5-6-1-6-1-2">path24</title>
				<path id="path7080-1-2-8-0-2-3-6-5-9-8" inkscape:connector-curvature="0" fill="#7BB800" fill-opacity="0.7811" d="
					M-34.287,3185.724c-5.03,5.552-7.987,12.21-11.335,18.864c3.188-11.698,9.722-21.741,15.8-31.971L-34.287,3185.724z"/>
			</g>
			<g id="shape37-79-2-6-4-7-2-9-5-0-8-6" transform="matrix(1,0,0,-1,167.369,1562.45)">
				<title  id="title7083-3-9-5-4-9-4-0-2-6-0">path26</title>
				<path id="path7085-3-8-7-4-0-5-1-8-50-2" inkscape:connector-curvature="0" fill="#7BB800" fill-opacity="0.7811" d="
					M266.577,3254.823l-2.13-5.313c-3.901-27.601-12.283-54.894-25.204-80.211C253.502,3195.998,262.712,3225.216,266.577,3254.823
					L266.577,3254.823z"/>
			</g>
			<g id="shape38-82-4-7-2-7-1-3-32-60-2-4" transform="matrix(1,0,0,-1,92.9883,1462.76)">
				<title  id="title7088-1-7-3-2-5-8-6-2-8-8">path28</title>
				<path id="path7090-1-4-8-1-5-2-0-4-6-6" inkscape:connector-curvature="0" fill="#7BB800" fill-opacity="0.7811" d="
					M26.597,3543.413c9.801,3.538,24.054,1.922,34.412,4.289c-13.506-1.142-26.977-1.814-40.289-3.508L26.597,3543.413z"/>
			</g>
			<g id="shape39-85-3-8-9-4-6-3-5-8-02-5" transform="matrix(1,0,0,-1,3.26762,1507.92)">
				<title  id="title7093-8-7-1-6-7-9-7-6-4-0">path30</title>
			</g>
			<g id="shape40-88-4-3-6-2-3-4-4-5-8-9" transform="matrix(1,0,0,-1,0,1526.85)">
				<title  id="title7098-2-2-2-7-9-85-4-0-6-00">path32</title>
			</g>
		</g>
		<g id="group41-91-7-9-2-1-6-13-9-9-5-6" transform="matrix(0,-1,1,0,-449.06751,418.26857)">
			<title  id="title7103-9-3-1-1-8-2-0-0-0-1">g8-6</title>
			<g id="shape42-92-3-7-3-2-5-8-6-0-9-3" transform="matrix(-1,0,0,1,75.3578,-116.31)">
				<title  id="title7106-1-4-8-5-9-1-1-61-0-8">path10-8</title>
				<path id="path7108-9-4-5-8-6-6-1-38-0-9" inkscape:connector-curvature="0" fill="#9AE300" fill-opacity="0.8541" d="
					M-77.377-1637.386c-14.453-0.228,2.755-7.435,21.66-10.352c5.196,4.087,9.923,8.147,14.178,12.168
					C-53.317-1638.447-65.29-1638.487-77.377-1637.386z"/>
			</g>
			<g id="shape43-98-8-4-6-5-6-4-9-9-6-34" transform="matrix(-1,0,0,1,58.0627,-102.162)">
				<title  id="title7111-6-3-6-8-0-6-0-3-1-4">path12-0</title>
			</g>
			<g id="shape44-101-0-1-8-4-3-7-4-4-3-60" transform="matrix(-1,0,0,1,46.5708,-86.3996)">
				<title  id="title7116-2-3-9-6-6-7-2-4-8-6">path14-2</title>
			</g>
			<g id="shape45-104-6-8-3-8-2-9-1-6-93-6" transform="matrix(-1,0,0,1,85.6187,-2.85125)">
				<title  id="title7121-0-0-5-5-1-6-9-0-4-1">path16-1</title>
				<path id="path7123-2-9-7-8-3-4-7-6-46-8" inkscape:connector-curvature="0" fill="#9AE300" fill-opacity="0.8541" d="
					M-121.974-1302.246c7.719-1.37,16.7-2.446,15.435-4.289C-98.108-1304.692-96.178-1302.998-121.974-1302.246z"/>
			</g>
			<g id="shape46-107-4-0-6-5-8-1-0-6-0-4" transform="matrix(-1,0,0,1,83.0852,-3.93754)">
				<title  id="title7126-8-3-9-9-7-9-9-1-6-9">path18-0</title>
				<path id="path7128-6-4-5-7-5-2-3-8-6-6" inkscape:connector-curvature="0" fill="#9AE300" fill-opacity="0.8541" d="
					M-109.098-1305.437l-5.433-1.144l5.083,0.474L-109.098-1305.437z"/>
			</g>
			<g id="shape47-110-5-9-7-2-9-6-3-4-1-37" transform="matrix(-1,0,0,1,179.006,-1.56931)">
				<title  id="title7131-0-4-7-1-9-31-3-9-8-88">path20-5</title>
				<path id="path7133-9-4-0-9-7-59-1-6-4-2" inkscape:connector-curvature="0" fill="#9AE300" fill-opacity="0.8541" d="
					M227.664-1668.361c0.822-23.315-6.856-34.623-13.822-54.657l-12.49-6.225c-10.232-19.805,0.982-12.599-6.334-28.356
					c-15.998-14.131-48.481-44.301-58.875-47.058c-7.597,0.201,5.124,8.941,6.818,12.368c-21.431-14.613-17.17-21.969-49.896-30.829
					l-0.954,2.085c-80.678-37.809-192.71,37.135-191.257,139.441c-0.862-6.496-2.441-4.882-4.249-7.531
					c-4.136,52.651,24.417,105.505,72.535,127.083c47.098,23.234,102.306,13.7,136.052-17.639
					c-18.54,24.173-55.408,49.853-99.118,47.446c-42.803-0.67-82.889-27.801-96.241-57.262
					c-21.935-13.738-24.489-53.041-34.022-60.246c-12.874-94.199,24.18-134.87,86.828-182.747c9.889-6.615,2.798-7.61,4.134-12.693
					c-20.825,9.735-39.89,24.417-55.562,42.378c8.31-12.127,17.291-23.945,28.868-33.196c-19.611,6.615-45.841,47.408-53.519,49.062
					c33.868-60.408,137.315-105.921,191.5-83.32c-25.042-0.901-56.902-0.51-85.055,9.842c-11.858,6.065-27.959,18.661-25.048,20.987
					c73.916-27.521,150.317-20.825,214.261,30.281c16.297,12.65,34.071,34.15,39.179,34.418c-7.716-11.577,1.344-5.593-4.597-15.785
					c16.214,26.07-7.059,10.595,16.764,45.001l8.781-12.087c-3.267,21.66,26.971,47.933,23.905,82.148
					c6.937,10.473,7.718-11.267,0.35-35.319c10.245,26.689,2.717,30.991,5.324,53.039c2.823-7.405,6.575-15.283,8.47-23.123
					c-6.669,25.842,6.805,43.481,10.151,58.487c-3.267,1.451-10.286-11.429-11.843,19.052c0.228,13.269,3.696,6.978,5.028,10.205
					c-2.635,1.494-9.438,11.656-13.621,31.151c2.998,4.558,8.081-11.899,12.17-12.569c-2.638,15.475-7.168,27.293-7.369,39.192
					c-12.008,24.967-4.249-3.35-13.984,10.7c-12.746,39.73,10.595,9.223,12.181,27.255c19.361-27.925,30.387-71.274,35.47-89.195
					c-3.901,21.86-10.113,43.076-17.748,63.553c5.862-2.433-9.494,45.018,7.635,13.593
					c-18.271,67.027-78.209,129.667-133.376,159.043c6.724-6.146,15.275-13.888,12.208-15.07
					c-27.455,16.252-22.614,17.52-26.54,24.417c-22.332,9.048-23.826-0.755-38.588-0.043
					c-42.143,22.278-50.257,19.927-89.007,33.857l1.775-8.229c-27.918,9.291-32.523-3.495-62.689,0
					c-1.814,1.426,9.688,5.16,19.139,6.534c-26.977-3.538-25.72,5.284-52.1-0.982c6.496,4.528,13.386,7.554,20.317,11.429
					c-22.01-1.349-52.531-12.761-43.08-2.369c-35.91-15.945-99.628-38.36-135.384-71.782l-1.137,7.473
					c-16.382-19.615-71.434-58.551-75.845-83.911l-4.375-1.02c-8.506-14.413-14.018-30.725-20.793-45.526
					c-11.139-18.945-16.338-7.29-14.763-10.247c-21.937-44.339-32.841-81.585-42.252-112.143c6.728-9.966,0.154-60.13,2.717-100.302
					c-11.026-198.276,139.594-390.758,304.237-435.208c24.141-8.591,60.013-8.267,90.533-9.142
					c-35.993,10.286-40.679,5.431-75.723,17.639c-25.324,11.899-30.876,25.439-48.793,40.955l7.085-12.518
					c-35.159,12.411-20.435,15.356-49.021,24.376l7.556,9.882c-11.38,0.86-30.163,19.133-35.319,29.257l-12.445-0.51
					c-15.004,18.433-22.957,31.704-22.404,42.015l-4.02-7.166c-4.565,7.797-55.086,69.067-28.862,54.817
					c-4.887,4.449-11.34,7.206-18.392,19.925l5.358,6.105c-12.639,16.186-23.234,36.892-22.406,43.831
					c6.696-9.063,11.38-10.757,15.985-12.33c-31.858,78.802-33.625,4.37-57.766,80.213l5.115,0.431
					c-3.933,5.875-6.299,12.249-9.445,18.514l2.239,22.05c-22.957,26.38-6.419,112.386-3.105,159.525
					c2.279,19.176,19.131,39.572,31.973,71.581l-7.84,1.344c14.965,25.953,85.255,104.243,117.828,100.223
					c15.785,19.722-3.154,0.081-6.227,5.04c34.655,35.709,45.56,25.236,68.954,31.651c25.204,14.925-21.66-5.783-9.688,5.715
					c43.59,11.105,30.872,25.249,87.737,30.87c6.024-3.414-13.903-5.271-18.905-9.68c36.309,17.72,114.951,13.7,165.974-9.842
					c59.266-27.579,125.86-109.164,128.508-185.948l2.985-0.794c-1.532-30.52,4.68-65.798-6.063-98.204L227.664-1668.361
					L227.664-1668.361z"/>
			</g>
			<g id="shape48-113-0-3-0-7-5-70-3-3-9-9" transform="matrix(-1,0,0,1,112.306,-121.803)">
				<title  id="title7136-0-9-2-2-2-2-5-78-6-1">path22-1</title>
				<path id="path7138-6-8-5-3-2-6-6-8-3-3" inkscape:connector-curvature="0" fill="#9AE300" fill-opacity="0.8541" d="
					M-198.33-1651.711l-2.049-10.123c9.492-12.868,17.055-26.809,29.182-36.853C-179.904-1681.721-186.397-1674.702-198.33-1651.711
					z"/>
			</g>
			<g id="shape49-116-1-5-9-5-7-1-9-2-78-5" transform="matrix(-1,0,0,1,108.962,-116.787)">
				<title  id="title7141-3-3-3-2-0-76-5-91-8-98">path24-1</title>
				<path id="path7143-8-8-0-7-3-2-9-3-2-4" inkscape:connector-curvature="0" fill="#9AE300" fill-opacity="0.8541" d="
					M-179.212-1655.839c-5.043,5.553-7.994,12.208-11.342,18.864c3.192-11.698,9.727-21.741,15.791-31.973L-179.212-1655.839z"/>
			</g>
			<g id="shape50-119-9-1-3-9-5-5-8-59-9-0" transform="matrix(-1,0,0,1,11.999,-99.6938)">
				<title  id="title7146-3-2-7-6-5-3-8-8-1-7">path26-0</title>
				<path id="path7148-4-3-6-5-2-4-3-4-35-6" inkscape:connector-curvature="0" fill="#9AE300" fill-opacity="0.8541" d="
					M121.646-1586.762l-2.125-5.311c-3.899-27.603-12.287-54.896-25.208-80.213C108.565-1645.586,117.773-1616.368,121.646-1586.762
					L121.646-1586.762z"/>
			</g>
			<g id="shape51-122-4-8-1-2-6-0-9-0-9-3" transform="matrix(-1,0,0,1,86.3794,0)">
				<title  id="title7151-6-9-5-8-5-7-5-7-8-6">path28-8</title>
				<path id="path7153-0-8-2-3-2-5-1-6-4-1" inkscape:connector-curvature="0" fill="#9AE300" fill-opacity="0.8541" d="
					M-118.343-1298.158c9.81,3.547,24.06,1.921,34.421,4.289c-13.506-1.144-26.977-1.818-40.289-3.512L-118.343-1298.158z"/>
			</g>
			<g id="shape52-125-6-5-5-5-7-53-36-3-0-5" transform="matrix(-1,0,0,1,176.1,-45.1573)">
				<title  id="title7156-6-1-9-7-0-1-2-6-7-4">path30-5</title>
			</g>
			<g id="shape53-128-8-6-5-3-9-8-8-1-6-2" transform="matrix(-1,0,0,1,179.368,-64.095)">
				<title  id="title7161-4-1-3-5-5-8-8-5-36-0">path32-0</title>
			</g>
		</g>
		<g id="group145-244-6-1-5-9-5-8-1-42-1-9" transform="translate(266.94931,-463.01613)">
			<title  id="title7358-3-8-5-7-7-0-9-0-5-7">Tabelle.145</title>
			<g id="shape146-245-7-7-3-9-7-1-8-9-4-3">
				<title  id="title7361-8-7-6-1-7-7-13-7-2-7">path4324</title>
				
					<radialGradient id="path7363-8-2-6-0-3-50-3-37-0-2_1_" cx="-14296.5645" cy="2456.8464" r="179.4748" gradientTransform="matrix(0.2847 0 0 -0.2874 1564.1045 1336.354)" gradientUnits="userSpaceOnUse">
					<stop  offset="0" style="stop-color:#FFDA44"/>
					<stop  offset="1" style="stop-color:#FF9900"/>
				</radialGradient>
				
					<path id="path7363-8-2-6-0-3-50-3-37-0-2" inkscape:connector-curvature="0" fill="url(#path7363-8-2-6-0-3-50-3-37-0-2_1_)" d="
					M-2391.474,847.995c-5.326-4.208-18.395-14.534-29.069-22.923c-32.216-25.304-45.553-37.003-58.003-50.824
					c-21.19-23.514-27.012-35.488-27.012-55.333c0.041-21.182,7.556-38.514,23.864-54.936c7.678-7.719,9.923-9.445,16.888-12.915
					c18.474-9.251,36.785-8.073,53.714,3.429c2.717,1.807,5.363,3.583,5.956,3.939c0.619,0.391,2.676-1.144,5.472-4.18
					c21.216-22.837,50.515-30.044,75.281-18.582c25.518,11.811,41.988,37.882,42.094,66.782c0.042,10.595-1.332,16.935-5.698,26.192
					c-4.494,9.451-12.086,18.621-32.457,39.058c-19.726,19.805-29.687,31.341-38.347,44.544
					c-5.954,9.007-14.451,25.827-18.271,36.059c-1.532,4.101-3.227,7.409-3.777,7.409
					C-2381.389,855.714-2386.203,852.259-2391.474,847.995z"/>
			</g>
			<g id="shape147-249-2-8-8-3-6-5-43-2-9-6" transform="translate(42.6175,-27.0065)">
				<title  id="title7366-9-2-5-8-5-9-92-6-7-0">path4586</title>
				<path id="path7368-1-3-2-2-5-0-7-01-3-1" inkscape:connector-curvature="0" fill="#FFFFFF" fill-opacity="0.098" d="
					M-2362.51,717.659c-2.125,1.891-1.02,6.227-2.019,8.982c-2.552,17.285-9.048,33.667-15.821,49.734
					c10.35-8.86,23.149-17.605,26.23-31.736c1.84-8.625,2.002-19.886-6.077-25.439
					C-2360.897,718.763-2361.567,717.621-2362.51,717.659z"/>
			</g>
			<g id="shape148-251-3-6-1-8-6-9-2-6-72-6" transform="translate(42.1289,-26.3833)">
				<title  id="title7371-5-6-0-6-1-3-1-5-60-5">path4591</title>
				<path id="path7373-9-9-2-1-3-5-7-7-1-7" inkscape:connector-curvature="0" fill="#FFFFFF" fill-opacity="0.098" d="
					M-2361.671,716.063c-3.858,0.201-1.925,6.028-3.107,8.51c-2.407,18.702-10.124,36.584-17.008,53.633
					c8.391-6.34,16.7-13.034,23.315-21.263c6.534-9.534,9.292-22.844,4.29-33.633
					C-2356.081,720.512-2358.714,717.561-2361.671,716.063z"/>
			</g>
			<g id="shape149-253-8-6-6-5-5-4-6-5-6-5" transform="translate(41.821,-26.1088)">
				<title  id="title7376-4-5-8-6-3-2-1-4-5-4">path4596</title>
				<path id="path7378-0-1-9-9-0-7-7-12-7-12" inkscape:connector-curvature="0" fill="#FFFFFF" fill-opacity="0.098" d="
					M-2361.782,714.901c-4.451,0.241-2.364,6.5-3.627,9.257c-2.356,19.178-10.555,36.9-17.281,54.734
					c3.781,0.122,6.538-4.562,9.684-6.419c9.33-7.718,19.21-16.416,21.698-28.941c1.775-9.176,1.613-20.631-6.773-26.661
					C-2359.144,716.205-2360.369,714.626-2361.782,714.901z"/>
			</g>
			<g id="shape150-255-7-3-6-1-6-2-3-0-5-0" transform="translate(41.5552,-25.5152)">
				<title  id="title7381-6-8-2-8-1-6-0-0-4-0">path4601</title>
				<path id="path7383-3-0-5-9-7-7-6-1-1-1" inkscape:connector-curvature="0" fill="#FFFFFF" fill-opacity="0.098" d="
					M-2361.704,713.379c-5.433,0.391-3.064,7.913-4.516,11.38c-2.65,18.589-10.448,35.874-17.17,53.278
					c-0.081,2.714,4.165,0.792,5.04-0.316c10.393-8.935,23.111-17.404,27.199-31.147c2.488-8.585,3.427-19.252-2.044-26.856
					C-2355.52,717.474-2358.115,713.339-2361.704,713.379z"/>
			</g>
			<g id="shape151-257-6-7-8-2-3-2-0-4-2-4" transform="translate(41.3391,-25.3825)">
				<title  id="title7386-1-6-8-9-8-20-2-6-0-6">path4606</title>
				<path id="path7388-5-1-6-8-4-1-5-07-0-0" inkscape:connector-curvature="0" fill="#FFFFFF" fill-opacity="0.098" d="
					M-2361.62,712.312c-2.407,0.041-4.29,1.848-4.208,4.296c-1.63,16.101-6.47,31.657-12.531,46.62
					c-1.656,5.117-4.801,9.81-5.757,15.121c0.243,2.795,4.383,2.01,5.796,0.476c7.554-5.909,15.044-12.174,21.497-19.34
					c7.085-8.975,10.205-20.868,8.122-32.289c-0.875-6.34-5.715-11.658-11.08-14.769
					C-2360.356,712.271-2360.988,712.19-2361.62,712.312z"/>
			</g>
			<g id="shape152-259-4-6-6-8-3-1-6-1-1-7" transform="translate(40.8905,-25.2755)">
				<title  id="title7391-2-0-1-4-4-75-0-7-4-1">path4611</title>
				<path id="path7393-0-3-6-2-6-9-7-7-6-77" inkscape:connector-curvature="0" fill="#FFFFFF" fill-opacity="0.098" d="
					M-2361.32,711.245c-2.569,0.241-4.853,1.895-4.921,4.652c-1.263,9.882-2.919,19.803-6.184,29.338
					c-3.308,10.789-8.002,21.068-11.98,31.582c-1.024,2.36,1.101,4.643,3.508,4.249c4.571-1.022,7.678-5.158,11.335-7.872
					c7.691-6.696,16-13.352,19.697-23.16c3.615-8.619,4.289-18.702,1.263-27.603c-2.138-4.646-6.065-8.7-10.636-11.026
					c-0.67-0.194-1.383-0.275-2.083-0.154V711.245z"/>
			</g>
			<g id="shape153-261-9-1-7-8-4-1-2-7-07-77" transform="translate(40.504,-24.742)">
				<title  id="title7396-7-0-1-6-8-8-0-7-1-3">path4616</title>
				<path id="path7398-3-4-2-1-5-1-9-3-7-3" inkscape:connector-curvature="0" fill="#FFFFFF" fill-opacity="0.098" d="
					M-2361.041,709.783c-4.776,0.041-6.184,4.921-6.265,8.86c-1.925,20.202-10.392,38.904-17.682,57.653
					c-1.575,4.646,4.964,6.73,7.921,3.899c8.736-6.931,18.028-13.941,24.562-23.038c7.102-10.595,9.615-25.082,4.413-37.135
					c-2.825-4.296-6.577-9.217-11.805-10.279C-2360.29,709.742-2360.652,709.702-2361.041,709.783z"/>
			</g>
			<g id="shape154-263-7-3-5-7-2-7-54-3-7-5" transform="translate(40.2372,-24.4384)">
				<title  id="title7401-2-1-2-3-5-8-3-5-7-9">path4621</title>
				<path id="path7403-6-5-4-1-1-6-25-9-7-9" inkscape:connector-curvature="0" fill="#FFFFFF" fill-opacity="0.098" d="
					M-2360.373,708.51c-4.84-0.081-7.635,4.411-7.473,8.86c-1.899,20.477-10.409,39.416-17.801,58.4
					c-1.694,5.036,4.959,8.147,8.736,5.277c8.941-6.696,17.844-13.903,24.809-22.682c7.798-11.105,10.636-26.467,5.122-39.145
					C-2350.019,714.769-2354.509,708.666-2360.373,708.51z"/>
			</g>
			<g id="shape155-265-0-8-9-4-6-6-6-9-3-8" transform="translate(39.9824,-24.1802)">
				<title  id="title7406-1-9-2-9-3-99-0-8-3-1">path4626</title>
				<path id="path7408-6-5-7-7-0-2-8-1-5-82" inkscape:connector-curvature="0" fill="#FFFFFF" fill-opacity="0.098" d="
					M-2360.724,707.379c-5.041,0.154-7.879,4.921-7.798,9.607c-1.895,20.475-10.431,39.42-17.802,58.317
					c-1.775,5.399,4.921,9.372,9.373,6.696c8.903-5.828,16.739-13.35,24.135-21.028c9.304-11.577,12.962-28.512,6.897-42.412
					c-3.107-4.801-7.49-10.354-13.474-11.261C-2359.819,707.339-2360.293,707.258-2360.724,707.379z"/>
			</g>
			<g id="shape156-267-5-4-0-5-4-6-8-82-9-6" transform="translate(39.6492,-24.0056)">
				<title  id="title7411-7-5-0-9-4-6-1-66-9-6">path4631</title>
				<path id="path7413-5-7-4-8-7-5-5-0-8-03" inkscape:connector-curvature="0" fill="#FFFFFF" fill-opacity="0.098" d="
					M-2360.011,706.195c-5.045,0.081-8.903,4.33-8.984,9.298c-1.758,20.552-10.068,39.77-17.677,58.669
					c-2.395,5.518,3.589,11.03,8.979,9.101c8.66-4.174,15.125-11.818,22.372-18.036c12.129-11.658,17.319-30.951,10.823-46.783
					C-2347.681,713.167-2353.238,706.114-2360.011,706.195z"/>
			</g>
			<g id="shape157-269-4-4-9-1-2-8-7-3-1-8" transform="translate(44.4369,-29.6908)">
				<title  id="title7416-1-4-0-5-4-4-5-8-8-0">path4322</title>
				
					<path id="path7418-2-6-8-5-6-0-7-0-2-1" inkscape:connector-curvature="0" fill="#FFFFFF" fill-opacity="0.94" stroke="#FFFFFE" stroke-width="2.5589" stroke-linecap="round" stroke-linejoin="round" stroke-miterlimit="3" stroke-opacity="0.37" d="
					M-2366.306,762.818c4.69-4.765,5.834-6.184,7.204-8.941c2.249-4.443,3.081-8.423,2.881-13.425
					c-0.205-4.571-0.981-6.777-3.431-9.411c-2.083-2.326-2.834-2.676-4.289-2.051c-1.344,0.551-1.383,0.672-2.014,6.265
					c-0.819,7.597-3.376,16.967-8.066,29.532c-0.981,2.595-0.674,3.698,1.02,3.698
					C-2372.088,768.486-2370.795,767.382-2366.306,762.818z"/>
			</g>
			<g id="shape158-271-0-7-1-2-1-3-9-1-6-2" transform="matrix(0.35946918,-0.93315696,0.93315696,0.35946918,-761.666,496.781)">
				<title  id="title7421-0-7-0-2-6-7-2-2-6-5">path4726</title>
				<path id="path7423-1-5-0-6-6-8-3-50-0-09" inkscape:connector-curvature="0" fill="#FFFFFF" fill-opacity="0.098" d="
					M-759.782-1500.469c-1.379,0.95-0.869,3.189-1.573,4.613c-2.208,8.818-6.779,17.208-11.539,25.438
					c6.693-4.524,14.882-9.019,17.282-16.269c1.458-4.408,1.974-10.155-2.791-12.986
					C-758.839-1499.908-759.193-1500.508-759.782-1500.469z"/>
			</g>
			<g id="shape159-273-4-2-1-7-6-3-7-9-38-4" transform="matrix(0.35946918,-0.93315696,0.93315696,0.35946918,-761.479,497.183)">
				<title  id="title7426-6-6-7-3-3-1-2-4-01-78">path4728</title>
				<path id="path7428-0-8-3-7-3-1-7-7-2-3" inkscape:connector-curvature="0" fill="#FFFFFF" fill-opacity="0.098" d="
					M-759.229-1501.255c-2.364,0.074-1.378,3.065-2.211,4.323c-2.16,9.577-7.557,18.745-12.44,27.457
					c5.396-3.231,10.745-6.662,15.119-10.867c4.373-4.884,6.581-11.701,3.899-17.221
					C-755.923-1499.014-757.459-1500.512-759.229-1501.255z"/>
			</g>
			<g id="shape160-275-7-8-5-9-1-2-9-8-5-5" transform="matrix(0.35946918,-0.93315696,0.93315696,0.35946918,-761.416,497.41)">
				<title  id="title7431-1-9-6-4-6-5-3-3-0-1">path4730</title>
				<path id="path7433-7-1-9-7-5-7-6-5-9-2" inkscape:connector-curvature="0" fill="#FFFFFF" fill-opacity="0.098" d="
					M-759.275-1501.911c-2.721,0.154-1.658,3.349-2.561,4.762c-2.165,9.81-7.836,18.91-12.642,28.037
					c2.322,0.043,4.214-2.358,6.185-3.304c6.062-3.936,12.444-8.425,14.411-14.802c1.419-4.697,1.777-10.554-3.189-13.626
					C-757.7-1501.207-758.369-1502.029-759.275-1501.911L-759.275-1501.911z"/>
			</g>
			<g id="shape161-277-7-9-5-2-5-6-3-1-4-0" transform="matrix(0.35946918,-0.93315696,0.93315696,0.35946918,-761.194,497.679)">
				<title  id="title7436-7-8-0-4-6-2-8-2-7-1">path4732</title>
				<path id="path7438-7-0-6-9-8-1-1-0-8-6" inkscape:connector-curvature="0" fill="#FFFFFF" fill-opacity="0.098" d="
					M-759.15-1502.673c-3.382,0.237-2.204,4.062-3.232,5.828c-2.277,9.535-7.713,18.387-12.475,27.253
					c-0.161,1.416,2.514,0.429,3.068-0.116c6.731-4.61,14.887-8.948,17.917-15.951c1.851-4.415,2.796-9.851-0.271-13.74
					C-755.52-1500.54-756.945-1502.671-759.15-1502.673z"/>
			</g>
			<g id="shape162-279-3-5-6-3-8-6-06-1-3-4" transform="matrix(0.35946918,-0.93315696,0.93315696,0.35946918,-761.177,497.825)">
				<title  id="title7441-3-0-2-7-9-1-8-6-51-0">path4734</title>
				<path id="path7443-5-2-3-4-1-1-7-4-2-6" inkscape:connector-curvature="0" fill="#FFFFFF" fill-opacity="0.098" d="
					M-759.095-1503.217c-1.46,0.045-2.677,0.947-2.76,2.202c-1.571,8.227-5.12,16.224-9.372,23.869
					c-1.221,2.588-3.35,4.993-4.094,7.758c0.041,1.411,2.596,1.017,3.507,0.234c4.882-3.033,9.726-6.226,13.933-9.891
					c4.732-4.606,7.058-10.702,6.188-16.534c-0.278-3.264-3.071-5.99-6.262-7.558C-758.31-1503.215-758.7-1503.253-759.095-1503.217
					L-759.095-1503.217z"/>
			</g>
			<g id="shape163-281-9-9-6-2-4-5-6-0-0-18" transform="matrix(0.35946918,-0.93315696,0.93315696,0.35946918,-761.225,498.1)">
				<title  id="title7446-9-6-7-1-7-7-5-6-1-9">path4736</title>
				<path id="path7448-8-0-5-9-0-4-1-1-6-8" inkscape:connector-curvature="0" fill="#FFFFFF" fill-opacity="0.098" d="
					M-758.875-1503.767c-1.576,0.118-3.072,0.982-3.191,2.396c-1.138,5.049-2.521,10.121-4.882,15.007
					c-2.445,5.509-5.714,10.788-8.51,16.187c-0.741,1.18,0.514,2.368,2.014,2.165c2.832-0.544,4.918-2.644,7.241-4.058
					c4.966-3.381,10.357-6.814,12.958-11.806c2.557-4.415,3.344-9.573,1.815-14.141c-1.184-2.398-3.432-4.457-6.148-5.672
					C-758.012-1503.769-758.401-1503.806-758.875-1503.767z"/>
			</g>
			<g id="shape164-283-1-2-2-6-4-8-2-8-4-4" transform="matrix(0.35946918,-0.93315696,0.93315696,0.35946918,-761.057,498.426)">
				<title  id="title7451-8-2-5-7-5-5-9-9-0-14">path4738</title>
				<path id="path7453-2-9-6-9-5-64-5-8-61-3" inkscape:connector-curvature="0" fill="#FFFFFF" fill-opacity="0.098" d="
					M-758.649-1504.496c-2.955,0-3.981,2.512-4.216,4.519c-1.886,10.368-7.796,19.934-12.949,29.542
					c-1.145,2.358,2.788,3.42,4.722,1.97c5.627-3.551,11.577-7.126,15.95-11.779c4.764-5.437,6.847-12.882,4.09-19.024
					c-1.575-2.201-3.696-4.714-6.928-5.269C-758.177-1504.505-758.416-1504.543-758.649-1504.496z"/>
			</g>
			<g id="shape165-285-6-2-6-9-5-9-6-4-8-9" transform="matrix(0.35946918,-0.93315696,0.93315696,0.35946918,-760.972,498.636)">
				<title  id="title7456-6-6-6-4-4-84-1-1-9-8">path4740</title>
				<path id="path7458-0-7-7-6-7-3-5-4-8-8" inkscape:connector-curvature="0" fill="#FFFFFF" fill-opacity="0.098" d="
					M-758.231-1505.151c-2.951-0.032-4.838,2.252-4.924,4.534c-1.884,10.479-7.795,20.163-13.068,29.887
					c-1.222,2.604,2.752,4.17,5.2,2.724c5.742-3.438,11.456-7.137,16.099-11.619c5.16-5.72,7.489-13.548,4.533-20.045
					C-752.043-1501.959-754.608-1505.063-758.231-1505.151z"/>
			</g>
			<g id="shape166-287-3-3-8-2-5-2-4-3-4-0" transform="matrix(0.35946918,-0.93315696,0.93315696,0.35946918,-760.905,498.83)">
				<title  id="title7461-8-6-6-7-2-53-13-9-1-8">path4742</title>
				<path id="path7463-0-0-4-7-9-83-85-88-4-7" inkscape:connector-curvature="0" fill="#FFFFFF" fill-opacity="0.098" d="
					M-758.372-1505.745c-3.119,0.077-5.046,2.52-5.163,4.928c-1.931,10.47-7.877,20.151-13.074,29.848
					c-1.297,2.748,2.641,4.802,5.51,3.423c5.678-2.992,10.792-6.808,15.6-10.748c6.142-5.954,9.052-14.612,5.825-21.739
					c-1.769-2.444-4.252-5.28-7.916-5.755C-757.861-1505.74-758.098-1505.779-758.372-1505.745z"/>
			</g>
			<g id="shape167-289-1-5-5-3-8-2-0-0-3-7" transform="matrix(0.35946918,-0.93315696,0.93315696,0.35946918,-760.895,499.052)">
				<title  id="title7466-2-2-5-1-0-7-9-8-9-8">path4744</title>
				<path id="path7468-5-1-8-2-2-0-2-77-8-3" inkscape:connector-curvature="0" fill="#FFFFFF" fill-opacity="0.098" d="
					M-757.915-1506.35c-3.109,0.045-5.661,2.21-5.864,4.765c-1.853,10.513-7.637,20.363-13.035,30.048
					c-1.687,2.84,1.815,5.626,5.195,4.642c5.479-2.125,9.735-6.055,14.418-9.213c7.909-5.987,11.814-15.862,8.386-23.935
					C-750.583-1502.762-753.736-1506.389-757.915-1506.35z"/>
			</g>
			<g id="shape168-291-0-7-0-9-6-68-1-83-8-8" transform="matrix(0.35946918,-0.93315696,0.93315696,0.35946918,-762.542,495.232)">
				<title  id="title7471-9-1-0-7-5-0-33-8-0-3">path4746</title>
				
					<path id="path7473-4-1-4-1-2-1-5-3-8-7" inkscape:connector-curvature="0" fill="#FFFFFF" fill-opacity="0.94" stroke="#FFFFFE" stroke-width="1.4361" stroke-linecap="round" stroke-linejoin="round" stroke-miterlimit="3" stroke-opacity="0.37" d="
					M-763.668-1477.372c3.03-2.434,3.819-3.141,4.765-4.573c1.535-2.277,2.205-4.321,2.246-6.886
					c0.035-2.319-0.353-3.422-1.778-4.806c-1.173-1.176-1.646-1.369-2.556-1.062c-0.865,0.32-0.862,0.362-1.459,3.229
					c-0.785,3.904-2.71,8.709-6.059,15.129c-0.708,1.338-0.554,1.885,0.509,1.878
					C-767.453-1474.457-766.586-1475.052-763.668-1477.372z"/>
			</g>
		</g>
	</g>
</g>
</svg>
